<svg width="39" height="39" viewBox="0 0 39 39" fill="none" xmlns="http://www.w3.org/2000/svg">
<path d="M19.333 19.333C16.6747 19.333 14.3991 18.3865 12.506 16.4935C10.613 14.6004 9.6665 12.3248 9.6665 9.6665C9.6665 7.00821 10.613 4.73256 12.506 2.83954C14.3991 0.946512 16.6747 0 19.333 0C21.9913 0 24.267 0.946512 26.16 2.83954C28.053 4.73256 28.9995 7.00821 28.9995 9.6665C28.9995 12.3248 28.053 14.6004 26.16 16.4935C24.267 18.3865 21.9913 19.333 19.333 19.333ZM0 38.666V31.8995C0 30.53 0.352425 29.2714 1.05727 28.1235C1.76212 26.9756 2.69857 26.0996 3.8666 25.4954C6.36378 24.2468 8.90124 23.3104 11.479 22.6861C14.0567 22.0618 16.6747 21.7496 19.333 21.7496C21.9913 21.7496 24.6093 22.0618 27.187 22.6861C29.7648 23.3104 32.3022 24.2468 34.7994 25.4954C35.9674 26.0996 36.9039 26.9756 37.6087 28.1235C38.3136 29.2714 38.666 30.53 38.666 31.8995V38.666H0ZM4.83325 33.8328H33.8328V31.8995C33.8328 31.4564 33.722 31.0536 33.5005 30.6911C33.279 30.3287 32.9869 30.0467 32.6245 29.8453C30.4495 28.7579 28.2544 27.9422 26.0391 27.3985C23.8239 26.8548 21.5885 26.5829 19.333 26.5829C17.0775 26.5829 14.8421 26.8548 12.6269 27.3985C10.4116 27.9422 8.21653 28.7579 6.04156 29.8453C5.67907 30.0467 5.38706 30.3287 5.16554 30.6911C4.94401 31.0536 4.83325 31.4564 4.83325 31.8995V33.8328ZM19.333 14.4998C20.6622 14.4998 21.8 14.0265 22.7465 13.08C23.693 12.1335 24.1663 10.9956 24.1663 9.6665C24.1663 8.33736 23.693 7.19953 22.7465 6.25302C21.8 5.30651 20.6622 4.83325 19.333 4.83325C18.0039 4.83325 16.866 5.30651 15.9195 6.25302C14.973 7.19953 14.4998 8.33736 14.4998 9.6665C14.4998 10.9956 14.973 12.1335 15.9195 13.08C16.866 14.0265 18.0039 14.4998 19.333 14.4998Z" fill="#5F5E5E"/>
</svg>
