<svg width="44" height="44" viewBox="0 0 44 44" fill="none" xmlns="http://www.w3.org/2000/svg">
<path d="M40.5275 43.0381C35.5463 43.0381 30.6248 41.9522 25.7631 39.7803C20.9014 37.6085 16.478 34.5301 12.493 30.5451C8.50799 26.5601 5.42957 22.1367 3.25774 17.275C1.08591 12.4133 0 7.49182 0 2.51056C0 1.79325 0.2391 1.1955 0.717301 0.717301C1.1955 0.2391 1.79325 0 2.51056 0H12.1941C12.752 0 13.2502 0.189288 13.6885 0.567864C14.1269 0.946439 14.3859 1.39475 14.4656 1.9128L16.0197 10.2813C16.0994 10.9189 16.0795 11.4569 15.96 11.8952C15.8404 12.3336 15.6212 12.7122 15.3024 13.031L9.50424 18.8889C10.3012 20.3634 11.2477 21.788 12.3436 23.1629C13.4394 24.5377 14.6449 25.8627 15.96 27.1379C17.1953 28.3733 18.4904 29.5189 19.8453 30.575C21.2002 31.631 22.6348 32.5974 24.1491 33.4741L29.768 27.8552C30.1267 27.4966 30.5949 27.2276 31.1727 27.0482C31.7505 26.8689 32.3184 26.8191 32.8763 26.8988L41.1253 28.5725C41.6832 28.7319 42.1415 29.0208 42.5001 29.4392C42.8588 29.8577 43.0381 30.3259 43.0381 30.844V40.5275C43.0381 41.2448 42.799 41.8426 42.3208 42.3208C41.8426 42.799 41.2448 43.0381 40.5275 43.0381ZM7.23279 14.346L11.1779 10.4009L10.1618 4.78201H4.84178C5.04104 6.41586 5.31999 8.02979 5.67864 9.62379C6.03729 11.2178 6.55534 12.7919 7.23279 14.346ZM28.6323 35.7455C30.1864 36.423 31.7705 36.9609 33.3844 37.3594C34.9983 37.7579 36.6222 38.017 38.2561 38.1365V32.8763L32.6372 31.7406L28.6323 35.7455Z" fill="#1B1C19"/>
</svg>
