<svg width="50" height="37" viewBox="0 0 50 37" fill="none" xmlns="http://www.w3.org/2000/svg">
<path d="M29.4979 20.4216C27.607 20.4216 25.9998 19.7598 24.6761 18.4362C23.3525 17.1126 22.6907 15.5053 22.6907 13.6144C22.6907 11.7235 23.3525 10.1163 24.6761 8.79265C25.9998 7.46902 27.607 6.80721 29.4979 6.80721C31.3888 6.80721 32.9961 7.46902 34.3197 8.79265C35.6433 10.1163 36.3051 11.7235 36.3051 13.6144C36.3051 15.5053 35.6433 17.1126 34.3197 18.4362C32.9961 19.7598 31.3888 20.4216 29.4979 20.4216ZM13.6144 27.2288C12.3664 27.2288 11.2981 26.7845 10.4094 25.8958C9.52064 25.007 9.07628 23.9387 9.07628 22.6907V4.53814C9.07628 3.29015 9.52064 2.2218 10.4094 1.33308C11.2981 0.444359 12.3664 0 13.6144 0H45.3814C46.6294 0 47.6977 0.444359 48.5865 1.33308C49.4752 2.2218 49.9195 3.29015 49.9195 4.53814V22.6907C49.9195 23.9387 49.4752 25.007 48.5865 25.8958C47.6977 26.7845 46.6294 27.2288 45.3814 27.2288H13.6144ZM18.1526 22.6907H40.8433C40.8433 21.4427 41.2876 20.3744 42.1763 19.4856C43.0651 18.5969 44.1334 18.1526 45.3814 18.1526V9.07628C44.1334 9.07628 43.0651 8.63192 42.1763 7.7432C41.2876 6.85448 40.8433 5.78613 40.8433 4.53814H18.1526C18.1526 5.78613 17.7082 6.85448 16.8195 7.7432C15.9308 8.63192 14.8624 9.07628 13.6144 9.07628V18.1526C14.8624 18.1526 15.9308 18.5969 16.8195 19.4856C17.7082 20.3744 18.1526 21.4427 18.1526 22.6907ZM43.1123 36.3051H4.53814C3.29015 36.3051 2.2218 35.8608 1.33308 34.972C0.444359 34.0833 0 33.015 0 31.767V6.80721H4.53814V31.767H43.1123V36.3051Z" fill="#1B1C1A"/>
</svg>
