<svg width="472" height="617" viewBox="0 0 472 617" fill="none" xmlns="http://www.w3.org/2000/svg">
<path d="M367.555 0.159524C374.919 -0.685439 383.184 1.78786 387.141 8.49761C392.37 17.3637 389.837 27.4955 393.838 37.2083C402.258 57.6674 426.246 65.1385 440.824 80.2682C461.211 100.312 471.431 125.489 471.569 154.01C471.685 177.482 463.309 203.509 449.829 222.681C446.246 227.777 440.273 232.641 437.439 237.029C436.272 238.837 433.83 249.36 432.667 252.429C426.892 267.658 418.468 277.231 407.279 288.464C442.284 308.253 462.189 331.461 463.055 373.903C463.576 399.381 459.278 414.747 445.014 436.117C445.841 445.105 446.353 452.611 445.918 461.668C443.916 502.84 425.488 541.487 394.764 568.964C357.296 602.952 307.942 618.374 257.783 615.799C212.642 613.817 170.241 593.589 140.296 559.752C124.751 541.974 114.004 520.518 109.075 497.422C107.969 492.379 107.846 488.111 106.901 483.404L106.803 482.934C104.6 481.225 103.043 479.683 101.681 477.202C100.15 474.411 99.2477 471.319 99.038 468.141C98.7137 462.947 99.1142 456.793 99.1947 451.522C99.5642 433.834 100.526 416.233 100.801 398.533C101.467 355.57 104.617 312.635 103.818 269.653C103.699 263.281 103.223 257.017 102.984 250.667L100.5 177.17C100.156 165.014 98.081 145.333 101.052 134.432C98.6034 134.133 95.9144 134.02 93.4583 133.836C52.8454 130.796 16.4426 105.748 3.20531 66.4572C-1.04363 53.8461 -3.73742 31.4666 13.0688 26.5553C25.3707 22.9602 33.6012 33.4451 41.6507 40.427C45.5926 43.8943 49.882 46.946 54.4505 49.533C94.6723 72.4702 149.041 57.0976 190.695 45.6949C183.118 40.6372 179.846 31.9623 185.832 24.539C194.346 13.98 218.356 9.22155 230.666 6.92138C269.592 -0.351679 302.003 10.4218 333.765 32.8293C340.212 16.3456 348.438 2.85591 367.555 0.159524Z" fill="black"/>
<path d="M258.228 122.957C283.662 122.168 307.628 125.234 332.874 130.221C384.583 140.437 427.254 176.929 414.338 234.173C408.08 261.893 387.469 278.318 364.166 292.585C376.978 295.662 394.786 303.964 405.449 311.008C422.645 322.383 435.643 339.097 439.174 359.73C450.393 425.247 398.179 459.119 341.203 470.2C310.841 476.143 283.27 478.684 252.313 480.053C217.278 481.81 182.158 479.459 147.671 473.042C120.741 467.87 121.47 467.982 122.14 441.922C123.622 384.321 127.508 326.608 126.991 268.999C126.349 230.155 123.244 191.38 122.252 152.532C122.003 142.758 122.486 136.436 133.494 134.099C143.119 132.056 152.78 131.193 162.528 129.984C194.286 125.994 226.228 123.649 258.228 122.957Z" fill="#FEFEFE"/>
<path d="M255.751 172.471C277.947 171.664 300.651 177.957 313.593 197.243C312.68 196.626 311.749 196.038 310.798 195.48C295.699 186.461 277.128 182.324 259.902 186.816C250.076 189.378 244.734 193.66 239.672 202.203C255.804 192.072 273.838 190.104 292.025 196.735C302.111 200.411 308.851 206.952 313.209 216.717C317.163 228.089 316.594 242.278 308.412 251.838C293.218 269.588 265.724 268.517 244.374 269.679C238.209 270.015 232.316 270.831 226.162 270.512C220.49 270.219 219.32 266 219.063 261.102C218.613 247.907 218.747 234.638 218.673 221.425C218.905 211.495 217.786 201.183 218.821 191.317C219.675 183.175 225.54 178.734 232.786 176.489C240.707 174.035 247.58 172.876 255.751 172.471Z" fill="black"/>
<path d="M268.993 207.691C281.909 207.212 292.761 217.308 293.214 230.225C293.67 243.141 283.55 253.973 270.634 254.401C257.752 254.828 246.957 244.745 246.505 231.864C246.053 218.984 256.114 208.169 268.993 207.691Z" fill="#ED8E30"/>
<path d="M274.773 212.611C278.98 212.247 282.697 215.342 283.097 219.546C283.498 223.75 280.436 227.491 276.237 227.929C271.982 228.372 268.183 225.264 267.779 221.008C267.374 216.751 270.513 212.98 274.773 212.611Z" fill="#FEFEFE"/>
<path d="M251.075 324.919C257.674 324.256 269.226 324.855 275.866 325.888C293.356 328.61 305.401 334.23 316.047 348.279L315.544 347.951C294.071 334.075 255.898 328.24 240.108 353.438C247.422 349.385 253.399 346.272 261.784 344.967C279.962 342.142 298.868 345.462 310.13 360.919C317.572 372.499 317.951 390.626 308.713 401.573C291.62 421.84 257.984 416.392 234.448 416.647C224.842 416.75 219.13 414.343 218.892 403.951C218.504 387.026 218.841 369.739 218.763 352.779C218.725 347.129 218.684 341.099 220.443 335.725C223.909 325.285 241.77 325.639 251.075 324.919Z" fill="black"/>
<path d="M267.886 357.056C280.742 355.923 292.077 365.432 293.192 378.287C294.307 391.143 284.781 402.465 271.922 403.559C259.094 404.653 247.803 395.152 246.689 382.323C245.576 369.497 255.061 358.188 267.886 357.056Z" fill="#ED8E30"/>
<path d="M275.014 361.681C279.29 361.384 283.007 364.588 283.343 368.86C283.674 373.132 280.509 376.875 276.237 377.249C271.913 377.633 268.11 374.411 267.77 370.083C267.43 365.755 270.686 361.982 275.014 361.681Z" fill="#FEFEFE"/>
<path d="M368.554 15.1845C377.352 14.2801 374.247 24.1057 375.414 31.3964C379.256 55.4585 398.123 67.9852 416.689 80.6412C436.595 94.2131 450.953 115.616 454.334 139.584C458.115 163.991 450.621 194.51 435.854 214.527C438.012 193.28 427.783 165.983 413.369 150.622C402.163 138.685 388.541 130.227 373.421 124.02C312.305 98.9276 242.078 101.86 177.581 108.554C146.291 111.968 128.503 118.766 95.9906 117.1C81.3282 115.369 69.7373 112.988 56.4884 105.583C38.5137 95.4172 23.9745 78.3018 18.2049 58.3427C17.1954 54.85 13.6196 42.5153 19.0585 41.3431C20.8246 42.2531 25.2252 46.5317 26.7687 48.0261C65.7593 85.7807 121.974 79.6881 169.895 66.5615C191.831 60.5524 210.591 53.3276 233.988 52.4219C223.248 41.0089 213.546 37.0562 199.173 32.3086C215.587 22.5799 243.479 19.1143 262.249 20.5838C290.212 22.772 313.907 35.589 335.333 52.934C340.535 57.145 347.098 62.6631 351.388 67.7527C347.124 49.7901 346.073 21.3865 368.554 15.1845Z" fill="#ED8E30"/>
<path d="M428.128 453.085L428.563 453.899C428.864 488.15 413.998 523.727 390.539 548.387C359.842 580.656 319.144 597.711 274.854 598.77C230.876 599.821 193.89 587.172 161.851 557.03C141.425 536.311 130.958 515.949 125.506 487.405C137.053 489.201 148.765 490.962 160.399 492.06C231.282 498.748 337.482 496.97 403.037 467.598C411.982 463.589 419.971 458.464 428.128 453.085Z" fill="#ED8E30"/>
<path d="M355.406 515.273C365.16 517.306 373.162 524.17 372.555 535.096C372.456 536.845 372.546 539.394 371.211 540.652C369.351 540.144 365.729 532.004 363.959 529.674C358.778 534.946 353.253 540.256 347.374 544.756C298.692 582.03 223.738 582.495 184.251 530.975L179.653 535.932C178.526 537.073 177.61 538.421 176.281 538.667L175.749 537.857C175.419 535.501 176.307 530.919 177.384 528.705C181.245 520.777 193.39 516.401 201.404 520.23C202.536 520.768 202.612 520.691 202.983 521.767C201.247 523.964 196.247 524.153 193.633 525.307C192.149 525.962 191.241 526.483 189.849 527.306C191.561 529.403 193.373 531.423 195.278 533.352C214.779 552.861 242.102 562.904 269.458 562.62C304.941 562.25 335.1 548.792 359.855 523.731C358.481 522.172 356.629 520.178 355.501 518.468C354.583 517.077 354.997 516.707 355.406 515.273Z" fill="black"/>
<path d="M363.162 499.739C374.346 498.675 384.161 505.996 384.079 517.736C384.054 521.315 383.24 523.473 382.055 526.754C380.806 524.416 379.941 522.004 378.985 519.536C373.985 506.281 362.245 506.074 350.436 505.424C355.44 501.47 356.732 500.54 363.162 499.739Z" fill="black"/>
<path d="M173.114 503.977C180.122 503.344 183.325 503.985 189.225 507.835C178.552 509.631 172.087 510.217 166.17 520.561L162.579 531.16C157.15 519.58 159.072 506.935 173.114 503.977Z" fill="black"/>
</svg>
